<?xml version="1.0" standalone="no"?>
<!DOCTYPE svg PUBLIC "-//W3C//DTD SVG 20010904//EN"
 "http://www.w3.org/TR/2001/REC-SVG-20010904/DTD/svg10.dtd">
<svg version="1.0" xmlns="http://www.w3.org/2000/svg"
 width="1600.000000pt" height="1600.000000pt" viewBox="0 0 1600.000000 1600.000000"
 preserveAspectRatio="xMidYMid meet">

<g transform="translate(0.000000,1600.000000) scale(0.100000,-0.100000)"
fill="#000000" stroke="none">
<path d="M7075 15653 c-117 -10 -348 -48 -485 -79 -1051 -243 -1964 -853
-2529 -1689 -121 -179 -188 -296 -286 -498 -212 -439 -335 -872 -407 -1432
-21 -167 -22 -200 -25 -1735 l-4 -1564 493 -493 493 -493 5 477 5 478 47 -225
c27 -124 70 -333 98 -465 34 -162 59 -259 79 -302 54 -115 159 -192 316 -232
105 -26 398 -58 605 -66 360 -13 1177 33 1403 80 180 37 339 168 431 355 18
36 68 176 112 313 l79 247 495 0 495 0 79 -247 c111 -347 171 -455 314 -562
120 -91 212 -115 542 -145 296 -27 579 -39 920 -39 283 0 363 4 515 22 290 36
405 74 502 168 70 69 97 139 153 408 28 132 71 341 98 465 l47 225 5 -478 5
-477 493 493 493 493 -4 1699 c-3 1819 -1 1720 -52 2015 -195 1131 -915 2001
-1985 2398 -351 131 -685 199 -1092 224 l-199 12 -44 61 c-104 147 -294 282
-530 378 -257 105 -604 177 -991 206 -127 10 -592 13 -689 4z m-913 -1994 c98
-20 196 -76 284 -164 134 -133 198 -265 216 -450 17 -168 48 -223 158 -274
l55 -26 1110 0 1110 0 50 27 c118 62 172 150 186 302 21 226 103 380 260 487
78 52 133 75 231 95 111 23 192 13 358 -42 763 -254 1259 -1055 1439 -2329 49
-340 76 -810 67 -1131 -3 -115 -9 -481 -12 -814 -6 -515 -9 -598 -20 -557 -36
137 -137 259 -265 320 -110 52 -510 138 -819 177 -47 5 -101 13 -120 16 -30 5
32 31 480 199 283 107 514 198 513 204 -3 10 -224 604 -227 608 -1 1 -596
-220 -1321 -493 -726 -272 -1325 -496 -1332 -499 -8 -3 -6 -18 7 -53 l19 -50
-58 -35 c-73 -45 -135 -113 -167 -180 -30 -66 -32 -159 -4 -249 11 -34 20 -66
20 -70 0 -5 -171 -8 -380 -8 -209 0 -380 3 -380 8 0 4 10 36 21 72 27 85 28
173 1 233 -27 61 -101 139 -174 183 -63 39 -63 37 -32 112 10 25 11 34 1 37
-7 3 -606 227 -1332 499 -725 273 -1320 494 -1321 493 -3 -4 -224 -598 -227
-608 -1 -6 230 -97 513 -204 567 -213 535 -194 360 -215 -310 -39 -740 -133
-834 -183 -118 -62 -215 -184 -251 -314 -11 -42 -14 27 -17 517 -4 797 -2
1110 11 1305 96 1419 503 2394 1191 2852 119 80 329 179 429 202 52 13 142 13
203 0z"/>
<path d="M3559 7646 c-83 -29 -147 -86 -191 -169 -22 -40 -23 -55 -26 -290 -4
-280 1 -306 66 -391 24 -33 59 -62 102 -85 l65 -36 213 -3 212 -3 0 495 0 496
-202 0 c-140 -1 -214 -5 -239 -14z"/>
<path d="M7255 840 c-135 -269 -245 -494 -245 -500 0 -7 334 -10 990 -10 656
0 990 3 990 10 0 6 -110 231 -245 500 l-245 490 -500 0 -500 0 -245 -490z"/>
</g>
</svg>
